<svg width="48" height="48" viewBox="0 0 48 48" fill="none" xmlns="http://www.w3.org/2000/svg">
<path d="M11.2102 37.4251H8.80682C8.78977 37.2262 8.74432 37.0458 8.67045 36.8839C8.59943 36.722 8.5 36.5827 8.37216 36.4663C8.24716 36.347 8.09517 36.256 7.91619 36.1935C7.73722 36.1282 7.53409 36.0955 7.30682 36.0955C6.90909 36.0955 6.57244 36.1921 6.29688 36.3853C6.02415 36.5785 5.81676 36.8555 5.67472 37.2163C5.53551 37.5771 5.46591 38.0103 5.46591 38.516C5.46591 39.0501 5.53693 39.4975 5.67898 39.8583C5.82386 40.2163 6.03267 40.4862 6.3054 40.668C6.57813 40.847 6.90625 40.9364 7.28977 40.9364C7.50852 40.9364 7.70455 40.9095 7.87784 40.8555C8.05114 40.7987 8.2017 40.7177 8.32955 40.6126C8.45739 40.5075 8.56108 40.381 8.64062 40.2333C8.72301 40.0827 8.77841 39.9137 8.80682 39.7262L11.2102 39.7433C11.1818 40.1126 11.0781 40.489 10.8991 40.8725C10.7202 41.2532 10.4659 41.6055 10.1364 41.9293C9.80966 42.2504 9.40483 42.5089 8.92188 42.7049C8.43892 42.9009 7.87784 42.9989 7.23864 42.9989C6.4375 42.9989 5.71875 42.8271 5.08239 42.4833C4.44886 42.1396 3.94744 41.6339 3.57812 40.9663C3.21165 40.2987 3.02841 39.4819 3.02841 38.516C3.02841 37.5444 3.21591 36.7262 3.59091 36.0614C3.96591 35.3938 4.47159 34.8896 5.10795 34.5487C5.74432 34.2049 6.45455 34.033 7.23864 34.033C7.78977 34.033 8.29688 34.1083 8.75994 34.2589C9.22301 34.4095 9.62926 34.6296 9.97869 34.9194C10.3281 35.2063 10.6094 35.56 10.8224 35.9805C11.0355 36.4009 11.1648 36.8825 11.2102 37.4251ZM20.4329 37.4251H18.0295C18.0124 37.2262 17.967 37.0458 17.8931 36.8839C17.8221 36.722 17.7227 36.5827 17.5948 36.4663C17.4698 36.347 17.3178 36.256 17.1388 36.1935C16.9599 36.1282 16.7567 36.0955 16.5295 36.0955C16.1317 36.0955 15.7951 36.1921 15.5195 36.3853C15.2468 36.5785 15.0394 36.8555 14.8974 37.2163C14.7582 37.5771 14.6886 38.0103 14.6886 38.516C14.6886 39.0501 14.7596 39.4975 14.9016 39.8583C15.0465 40.2163 15.2553 40.4862 15.5281 40.668C15.8008 40.847 16.1289 40.9364 16.5124 40.9364C16.7312 40.9364 16.9272 40.9095 17.1005 40.8555C17.2738 40.7987 17.4244 40.7177 17.5522 40.6126C17.68 40.5075 17.7837 40.381 17.8633 40.2333C17.9457 40.0827 18.0011 39.9137 18.0295 39.7262L20.4329 39.7433C20.4045 40.1126 20.3008 40.489 20.1218 40.8725C19.9428 41.2532 19.6886 41.6055 19.359 41.9293C19.0323 42.2504 18.6275 42.5089 18.1445 42.7049C17.6616 42.9009 17.1005 42.9989 16.4613 42.9989C15.6602 42.9989 14.9414 42.8271 14.305 42.4833C13.6715 42.1396 13.1701 41.6339 12.8008 40.9663C12.4343 40.2987 12.2511 39.4819 12.2511 38.516C12.2511 37.5444 12.4386 36.7262 12.8136 36.0614C13.1886 35.3938 13.6942 34.8896 14.3306 34.5487C14.967 34.2049 15.6772 34.033 16.4613 34.033C17.0124 34.033 17.5195 34.1083 17.9826 34.2589C18.4457 34.4095 18.8519 34.6296 19.2013 34.9194C19.5508 35.2063 19.832 35.56 20.0451 35.9805C20.2582 36.4009 20.3874 36.8825 20.4329 37.4251ZM27.2734 42.8796L28.7053 34.1524H30.4098L28.978 42.8796H27.2734ZM23.4041 40.8853L23.6939 39.1808H30.7166L30.4268 40.8853H23.4041ZM24.2053 42.8796L25.6371 34.1524H27.3416L25.9098 42.8796H24.2053ZM23.8984 37.8512L24.1882 36.1467H31.2109L30.9212 37.8512H23.8984ZM36.1392 34.1524V42.8796H33.7699V36.3342H33.7188L31.8097 37.4762V35.4649L33.9574 34.1524H36.1392ZM38.3232 42.8796L41.7493 36.0955V36.0444H37.7266V34.1524H44.2038V36.0444L40.7607 42.8796H38.3232Z" fill="white"/>
<path d="M11.7893 31.5706L24.0031 24.8007L36.2104 31.5706L24.0031 0L11.7893 31.5706Z" fill="white"/>
<path d="M17.6844 9.82193L4.21069 14.187L14.7685 17.5392L17.6844 9.82193Z" fill="white"/>
<path d="M43.7894 14.187L30.3157 9.82193L33.2315 17.5392L43.7894 14.187Z" fill="white"/>
</svg>
